<?xml version="1.0"?>
<svg xmlns="http://www.w3.org/2000/svg" viewBox="0 0 375.53 358.63">
  <defs>
    <style>.cls-1{fill:#363795;}.cls-2,.cls-5{fill:#8eb9cc;stroke:#fff;stroke-miterlimit:10;stroke-width:2px;}.cls-2,.cls-4{opacity:0.3;}.cls-3{fill:#fff;}.cls-6{fill:#666766;}.cls-7{fill:#0f7dc2;}</style>
  </defs>
  <title>Asset 7</title>
  <g id="Layer_2">
    <g id="Layer_1-2">
      <polygon class="cls-1" points="374.02 137.08 373.99 137.08 187.9 1.96 187.9 58.5 187.94 58.52 187.94 85.58 294.74 163.06 320.86 154.97 374.02 137.08"/>
      <polygon class="cls-2" points="187.9 40.19 187.9 1.96 2.15 136.99 55.22 154.97 55.22 154.97 81.37 163.07 81.37 163.06 187.94 85.58 187.94 40.16 187.9 40.19"/>
      <polygon class="cls-3" points="38.82 148.65 38.91 148.68 38.89 148.64 38.82 148.65"/>
      <polygon class="cls-2" points="122.2 288.53 122.19 288.53 81.45 163.11 39.19 149.55 2.36 137.06 73.43 355.5 73.43 355.58 106.06 311.17 106.04 311.17 122.2 288.53"/>
      <polygon class="cls-3" points="2.25 137.02 2.36 137.06 2.34 137.01 2.25 137.02"/>
      <polygon class="cls-2" points="337.11 149.53 294.76 163.11 254.02 288.53 254.01 288.53 270.17 311.17 270.16 311.17 302.97 355.54 373.97 137.05 337.11 149.53"/>
      <g class="cls-4">
        <polygon class="cls-5" points="254.01 288.53 122.2 288.53 96.54 323.97 73.24 355.3 302.83 355.3 279.63 323.97 254.01 288.53"/>
        <polygon class="cls-5" points="280.37 323.97 280.25 323.97 280.37 324.12 280.37 323.97"/>
        <polygon class="cls-5" points="302.98 355.3 302.83 355.3 302.98 355.49 302.98 355.3"/>
      </g>
      <path class="cls-6" d="M171.81,162.11h-3.44v-3.5h10.69v3.5H175.6v16h-3.79Z"/>
      <path class="cls-6" d="M184.84,158.62v7.8h4v-7.8h3.79V178.1H188.8v-8.15h-4v8.15h-3.79V158.62Z"/>
      <path class="cls-6" d="M204.18,169.54h-4.45v5.26h5v3.29h-8.82V158.62h8.47v3.29h-4.68v4.48h4.45Z"/>
      <path class="cls-6" d="M123.57,207.29a7.67,7.67,0,0,1-2.95.46c-5,0-7.34-4.1-7.34-9.62,0-7.34,4.07-10.2,7.86-10.2a5.21,5.21,0,0,1,2.63.52l-.64,3.18a3.81,3.81,0,0,0-1.76-.37c-2.14,0-4.08,1.85-4.08,6.68,0,4.65,1.76,6.47,4.08,6.47a6.67,6.67,0,0,0,1.82-.29Z"/>
      <path class="cls-6" d="M125.65,188.1h3.79v16.27h5v3.21h-8.79Z"/>
      <path class="cls-6" d="M140.42,188.1v19.48h-3.79V188.1Z"/>
      <path class="cls-6" d="M152,199h-4.45v5.26h5v3.29H143.8V188.1h8.47v3.29h-4.68v4.48H152Z"/>
      <path class="cls-6" d="M155.18,207.58V188.1h3.47l3,7.63c.58,1.5,1.53,4,2.08,5.69h.06c-.12-2.05-.38-5.43-.38-9V188.1h3.32v19.48h-3.47l-3-7.4a55.86,55.86,0,0,1-2-5.87h-.06c.09,2,.23,5,.23,8.87v4.39Z"/>
      <path class="cls-6" d="M172.2,191.6h-3.44v-3.5h10.69v3.5H176v16H172.2Z"/>
      <path class="cls-6" d="M186,188.39a17.39,17.39,0,0,1,3.84-.38,7.5,7.5,0,0,1,5.4,1.73c1.68,1.5,2.54,4.07,2.54,7.86s-1,6.73-2.72,8.24c-1.3,1.27-3.24,1.88-6,1.88a28.14,28.14,0,0,1-3.12-.2Zm3.79,16.18a2.48,2.48,0,0,0,.66.06c1.82,0,3.41-1.79,3.41-7.17,0-4-1-6.42-3.32-6.42a2.14,2.14,0,0,0-.75.09Z"/>
      <path class="cls-6" d="M204,188.1v19.48h-3.79V188.1Z"/>
      <path class="cls-6" d="M218.21,207.06a12.75,12.75,0,0,1-4,.69,6.94,6.94,0,0,1-5.2-1.94c-1.68-1.62-2.57-4.51-2.51-7.86.09-7.08,4.13-10,8.27-10a7.73,7.73,0,0,1,3.18.58l-.66,3.27a4.75,4.75,0,0,0-2.22-.43c-2.57,0-4.62,1.76-4.62,6.85,0,4.68,1.82,6.36,3.58,6.36a2.3,2.3,0,0,0,.75-.09v-4.71H213v-3.09h5.23Z"/>
      <path class="cls-6" d="M224.82,188.1v19.48H221V188.1Z"/>
      <path class="cls-6" d="M230.31,191.6h-3.44v-3.5h10.69v3.5H234.1v16h-3.79Z"/>
      <path class="cls-6" d="M241.67,203.13l-.87,4.45h-3.67l4.22-19.48h4.54l3.79,19.48H246l-.84-4.45Zm3.15-2.95-.64-4.08c-.2-1.18-.46-3.12-.64-4.42h-.09c-.2,1.3-.49,3.32-.69,4.45l-.72,4Z"/>
      <path class="cls-6" d="M251.81,188.1h3.79v16.27h5v3.21h-8.79Z"/>
      <path class="cls-6" d="M145.81,217.59h3.81v13.26c0,5.61-2.72,6.45-5.49,6.45a5.53,5.53,0,0,1-1.91-.29l.32-3.18a4.06,4.06,0,0,0,1.24.14c1.1,0,2-.43,2-2.95Z"/>
      <path class="cls-6" d="M164.21,227c0,7.34-2.6,10.32-6.3,10.32-4.42,0-6.16-4.68-6.16-10s2.11-9.91,6.41-9.91C162.88,217.35,164.21,222.53,164.21,227Zm-8.53.35c0,4.42.84,6.68,2.37,6.68s2.2-2.89,2.2-6.85c0-3.41-.52-6.5-2.23-6.5C156.53,220.65,155.69,223.13,155.69,227.32Z"/>
      <path class="cls-6" d="M170.28,217.59v12.66c0,2.86.87,3.73,1.85,3.73s1.88-.78,1.88-3.73V217.59h3.79v12c0,5-1.88,7.72-5.63,7.72-4.08,0-5.67-2.8-5.67-7.69v-12Z"/>
      <path class="cls-6" d="M181.06,217.87a22.6,22.6,0,0,1,4.13-.38c2.08,0,3.93.29,5.2,1.45a5,5,0,0,1,1.53,4,5.19,5.19,0,0,1-3,4.88v.06c1.33.52,2,1.76,2.37,3.84a31.38,31.38,0,0,0,1.24,5.29h-4a27.1,27.1,0,0,1-1-4.65c-.35-2.43-1-3.12-2.22-3.12h-.55v7.77h-3.79Zm3.79,8.5h.67c1.65,0,2.6-1.33,2.6-3s-.67-2.83-2.37-2.89a2.7,2.7,0,0,0-.9.12Z"/>
      <path class="cls-6" d="M194.64,237.06V217.59h3.47l3,7.63c.58,1.5,1.53,4,2.08,5.69h.06c-.12-2.05-.37-5.43-.37-9v-4.31h3.32v19.48h-3.47l-3-7.4a55.65,55.65,0,0,1-2-5.87h-.06c.09,2,.23,5,.23,8.87v4.39Z"/>
      <path class="cls-6" d="M217.79,228.51h-4.45v5.26h5v3.29h-8.82V217.59H218v3.29h-4.68v4.48h4.45Z"/>
      <path class="cls-6" d="M223.42,237.06v-7.46l-4.28-12h4l1.33,4.65c.35,1.24.72,2.69,1,4.13h.06c.23-1.42.55-2.83.9-4.22l1.16-4.57h3.93l-4.36,11.88v7.6Z"/>
      <path class="cls-7" d="M76.73,123.79l-3.23,2.49,2.94,3.82,3.65-2.81,1.84,2.39-6.4,4.93L64.64,120.46l6.15-4.73,1.84,2.39-3.4,2.62,2.5,3.25L75,121.5Z"/>
      <path class="cls-7" d="M88.37,124.72l-2.91-1.91c-.9-.61-1.75-1.23-2.7-1.94l0,0c.46,1.08.9,2.12,1.3,3.08l1.22,3.14-2.73,2.1-2.93-9.28-7.86-5,2.88-2.21,2.84,2c.8.56,1.55,1.15,2.4,1.77l0,0c-.43-1-.78-1.84-1.19-2.76l-1.27-3.13,2.75-2.12,2.77,9.07,8.27,5Z"/>
      <path class="cls-7" d="M81.61,107.72a18.14,18.14,0,0,1,2.67-2.49c1.64-1.26,3.1-2,4.68-1.87a5.14,5.14,0,0,1,3.61,2.17A6,6,0,0,1,94,109.86a6.26,6.26,0,0,1-2.41,4l-.55.42,4.06,5.27-2.75,2.12ZM89.31,112a1.83,1.83,0,0,0,.47-.3c1.39-1.07,1.26-2.54.24-3.86s-2.2-1.82-3.48-.83a2.6,2.6,0,0,0-.59.62Z"/>
      <path class="cls-7" d="M103.13,103.46l-3.23,2.49,2.94,3.82,3.65-2.81,1.84,2.39-6.4,4.93L91,100.13l6.15-4.73L99,97.79l-3.4,2.62,2.5,3.25,3.23-2.49Z"/>
      <path class="cls-7" d="M99.48,94a20.73,20.73,0,0,1,2.79-2.58c1.51-1.16,3-2,4.59-1.86a4.55,4.55,0,0,1,3.37,2.08,4.76,4.76,0,0,1,.55,5.23l0,0c1.26-.37,2.43.17,3.87,1.47a28.69,28.69,0,0,0,3.86,3.15l-2.88,2.21a24.56,24.56,0,0,1-3.29-2.85c-1.61-1.57-2.44-1.73-3.36-1l-.4.31L113,105.8l-2.75,2.12ZM107,98l.48-.37c1.2-.92,1.15-2.42.19-3.66s-2.07-1.69-3.34-.77a2.46,2.46,0,0,0-.59.59Z"/>
      <path class="cls-7" d="M111.93,84.06,122.82,98.2l-2.75,2.12L109.18,86.17Z"/>
      <path class="cls-7" d="M126.47,85.49,123.24,88l2.94,3.82L129.83,89l1.84,2.39-6.4,4.93L114.38,82.17l6.15-4.73,1.84,2.39L119,82.44l2.5,3.25,3.23-2.49Z"/>
      <path class="cls-7" d="M133.54,89.95,122.66,75.8l2.52-1.94,6.45,3.86c1.26.77,3.36,2.06,4.69,3l0,0c-1.23-1.42-3.31-3.74-5.31-6.34l-2.41-3.13,2.41-1.86,10.89,14.15-2.52,1.94-6.3-3.71a51.36,51.36,0,0,1-4.71-3.16l0,0c1.16,1.38,2.95,3.48,5.13,6.31L136,88.09Z"/>
      <path class="cls-7" d="M151,76.18a7,7,0,0,1-1.88,2c-3.61,2.78-7.63,1.12-10.71-2.89-4.1-5.33-2.74-9.69,0-11.8a4.77,4.77,0,0,1,2.2-1.09L141.92,65a3.48,3.48,0,0,0-1.49.71c-1.55,1.2-1.93,3.62.77,7.13s4.9,3.72,6.58,2.42a6.07,6.07,0,0,0,1.16-1.23Z"/>
      <path class="cls-7" d="M153.87,64.41l-3.23,2.49,2.94,3.82,3.65-2.81,1.84,2.39-6.4,4.93L141.78,61.08l6.15-4.73,1.84,2.39-3.4,2.62,2.5,3.25,3.23-2.49Z"/>
      <path class="cls-3" d="M244,69.24l-10.69,14.3-2.78-2.08,10.69-14.3Z"/>
      <path class="cls-3" d="M235.82,85.4l10.69-14.3,2.55,1.9-2,7.25c-.4,1.42-1.08,3.79-1.6,5.32l0,0c1-1.57,2.71-4.19,4.67-6.83l2.36-3.16L255,77.44,244.3,91.74l-2.55-1.9,1.87-7.07a51.51,51.51,0,0,1,1.78-5.39l0,0c-1,1.49-2.56,3.78-4.7,6.64l-2.41,3.23Z"/>
      <path class="cls-3" d="M248.57,90.5a6.8,6.8,0,0,0,1.94,2.31c1.32,1,2.46.78,3.16-.15s.52-2-.1-3.71c-1.06-2.65-.68-4.71.29-6,1.71-2.29,4.67-3.06,7.66-.82a6.09,6.09,0,0,1,1.87,2.19l-2.24,2.06a4.26,4.26,0,0,0-1.46-1.85,1.93,1.93,0,0,0-2.87.17c-.63.85-.54,1.61.31,3.7,1,2.56.65,4.52-.47,6-2,2.61-5.17,2.89-8,.79a7.84,7.84,0,0,1-2.31-2.62Z"/>
      <path class="cls-3" d="M268.59,87.6l-10.69,14.3-2.78-2.08,10.69-14.3Z"/>
      <path class="cls-3" d="M268.61,109.31a11.71,11.71,0,0,1-3.35-1.71,6.36,6.36,0,0,1-2.76-4.28c-.34-2.11.58-4.72,2.47-7.15,3.95-5.15,8.54-5.09,11.57-2.83a7.11,7.11,0,0,1,2,2.17l-2.28,2a4.35,4.35,0,0,0-1.4-1.54c-1.89-1.41-4.36-1.24-7.15,2.49-2.57,3.44-2.15,5.67-.86,6.63a2.12,2.12,0,0,0,.6.35l2.58-3.46-1.27-1,1.7-2.27,3.84,2.87Z"/>
      <path class="cls-3" d="M283.87,99l-4.28,5.73,2.91,2.17,4.28-5.73,2.78,2.08-10.69,14.3-2.78-2.08,4.47-6-2.91-2.17-4.47,6-2.78-2.08,10.69-14.3Z"/>
      <path class="cls-3" d="M291.65,108.84l-2.52-1.89,1.92-2.57,7.85,5.87L297,112.82l-2.55-1.9-8.77,11.73-2.78-2.08Z"/>
      <path class="cls-7" d="M55,208.13l-4.11.62-1.13-3.17,18.12-2.34,1.4,3.92-15.66,9.26-1.13-3.17L56,211.15Zm3.51,1.81,3.32-1.8c1-.54,2.55-1.36,3.62-1.91l0-.08c-1.18.22-3,.6-4.06.77l-3.72.62Z"/>
      <path class="cls-7" d="M57.45,216.69a6.79,6.79,0,0,0,.34,3c.55,1.55,1.62,2,2.71,1.62s1.56-1.4,2-3.15c.58-2.79,2-4.3,3.56-4.84,2.7-1,5.58,0,6.83,3.56a6.11,6.11,0,0,1,.34,2.86l-3,.48a4.26,4.26,0,0,0-.19-2.35,1.93,1.93,0,0,0-2.48-1.45c-1,.36-1.34,1-1.79,3.25-.56,2.7-2,4.13-3.73,4.76-3.07,1.09-5.9-.46-7.07-3.75a7.84,7.84,0,0,1-.47-3.46Z"/>
      <path class="cls-7" d="M61,226.52a6.79,6.79,0,0,0,.34,3c.55,1.55,1.62,2,2.71,1.62s1.56-1.4,2-3.15c.58-2.79,2-4.3,3.56-4.84,2.69-1,5.58,0,6.83,3.56a6.1,6.1,0,0,1,.34,2.86l-3,.48a4.26,4.26,0,0,0-.19-2.35A1.93,1.93,0,0,0,71,226.25c-1,.36-1.34,1-1.79,3.25-.56,2.7-2,4.13-3.73,4.76-3.07,1.09-5.9-.46-7.07-3.75a7.84,7.84,0,0,1-.47-3.46Z"/>
      <path class="cls-7" d="M79.19,235.1,68.26,239c-2.47.88-3,1.9-2.65,2.74s1.25,1.38,3.8.48l10.93-3.89,1.16,3.27-10.36,3.69c-4.32,1.54-7.24.75-8.4-2.5-1.25-3.52.68-5.75,4.9-7.25L78,231.83Z"/>
      <path class="cls-7" d="M82.25,244.5A20.78,20.78,0,0,1,83.85,248c.64,1.8,1,3.48.35,4.94a4.55,4.55,0,0,1-3,2.57A4.76,4.76,0,0,1,76,254.36l0,0c0,1.31-.91,2.26-2.59,3.23a28.81,28.81,0,0,0-4.18,2.7L68,256.89a24.61,24.61,0,0,1,3.72-2.25c2-1,2.4-1.78,2-2.88l-.17-.47-6.71,2.39-1.16-3.27Zm-6.17,5.88.2.57c.51,1.42,1.95,1.84,3.42,1.31s2.24-1.44,1.77-2.93a2.49,2.49,0,0,0-.37-.74Z"/>
      <path class="cls-7" d="M79.78,266.61l-1.37-3.84-4.54,1.62,1.55,4.34-2.84,1-2.71-7.61,16.82-6,2.6,7.31-2.85,1-1.44-4-3.87,1.38,1.37,3.84Z"/>
      <path class="cls-7" d="M288,270.5l16.79,6.06-1.18,3.26-16.79-6.06Z"/>
      <path class="cls-7" d="M305.89,273.64l-16.79-6.06,1.08-3,7.51-.22c1.47,0,3.94-.07,5.56,0l0-.05c-1.8-.54-4.8-1.37-7.89-2.48l-3.71-1.34,1-2.87,16.79,6.06-1.08,3-7.3.26a51.56,51.56,0,0,1-5.67-.13l0,0c1.72.54,4.36,1.35,7.72,2.56l3.79,1.37Z"/>
      <path class="cls-7" d="M310.53,260.79l-16.79-6.06,1.08-3,7.51-.22c1.47,0,3.94-.07,5.55,0l0,0c-1.8-.54-4.8-1.37-7.89-2.48l-3.71-1.34,1-2.87,16.79,6.06-1.08,3-7.3.26a51.07,51.07,0,0,1-5.67-.13l0,0c1.72.54,4.36,1.35,7.72,2.56l3.79,1.37Z"/>
      <path class="cls-7" d="M310.05,234.88c6.33,2.28,8.09,5.45,6.94,8.64-1.38,3.81-6,3.85-10.56,2.19s-7.89-4.9-6.55-8.62C301.34,233,306.22,233.49,310.05,234.88Zm-2.35,7.46c3.81,1.38,6,1.35,6.49,0s-1.81-2.79-5.22-4c-2.94-1.06-5.77-1.57-6.3-.1C302.2,239.54,304.09,241,307.7,242.34Z"/>
      <path class="cls-7" d="M320.34,233.6l-18.15-2.3,1.3-3.61,7.68,1.42c1.9.35,4.1.75,6.15,1.23l0,0c-1.91-.94-3.83-1.95-5.62-2.93L305,223.63l1.29-3.59,15.41,9.9Z"/>
      <path class="cls-7" d="M320.54,221l3.57,2.13L323,226.33l-15.48-9.7,1.41-3.91,18,2.8-1.14,3.16-4.1-.66ZM319,217.4l-3.71-.72c-1.08-.19-2.83-.57-4-.83l0,.07c1.06.58,2.71,1.46,3.62,2l3.26,1.88Z"/>
      <path class="cls-7" d="M314,208.13l-1.07,3-3-1.09,3.33-9.22,3,1.09-1.08,3,13.78,5-1.18,3.26Z"/>
      <path class="cls-7" d="M325.8,195.36l-1.38,3.84,4.54,1.64,1.56-4.34,2.84,1-2.74,7.6-16.79-6.06,2.63-7.3,2.84,1-1.46,4,3.86,1.39,1.38-3.84Z"/>
      <path class="cls-7" d="M137.53,329.24l-.79,4.08h-3.36l3.87-17.85h4.16l3.47,17.85H141.5l-.77-4.08Zm2.89-2.7-.58-3.74c-.19-1.09-.42-2.86-.58-4.05h-.08c-.19,1.19-.45,3-.64,4.08l-.66,3.71Z"/>
      <path class="cls-7" d="M155,333.05a7,7,0,0,1-2.7.42c-4.56,0-6.73-3.76-6.73-8.82,0-6.73,3.74-9.35,7.21-9.35a4.76,4.76,0,0,1,2.41.48l-.58,2.91a3.49,3.49,0,0,0-1.62-.34c-2,0-3.74,1.7-3.74,6.12,0,4.26,1.62,5.93,3.74,5.93a6.1,6.1,0,0,0,1.67-.26Z"/>
      <path class="cls-7" d="M165.11,333.05a7,7,0,0,1-2.7.42c-4.56,0-6.73-3.76-6.73-8.82,0-6.73,3.74-9.35,7.21-9.35a4.77,4.77,0,0,1,2.41.48l-.58,2.91a3.49,3.49,0,0,0-1.62-.34c-2,0-3.73,1.7-3.73,6.12,0,4.26,1.62,5.93,3.73,5.93a6.11,6.11,0,0,0,1.67-.26Z"/>
      <path class="cls-7" d="M174.56,325.48h-4.08v4.82h4.61v3H167V315.46h7.76v3h-4.29v4.11h4.08Z"/>
      <path class="cls-7" d="M177.45,315.46h3.47v14.91h4.58v2.94h-8.05Z"/>
      <path class="cls-7" d="M195.06,325.48H191v4.82h4.61v3h-8.08V315.46h7.76v3H191v4.11h4.08Z"/>
      <path class="cls-7" d="M197.95,315.73a20.74,20.74,0,0,1,3.79-.34c1.91,0,3.6.27,4.77,1.33a4.55,4.55,0,0,1,1.4,3.71,4.76,4.76,0,0,1-2.75,4.48v.05c1.22.48,1.83,1.62,2.17,3.52a28.63,28.63,0,0,0,1.14,4.85h-3.63a24.67,24.67,0,0,1-.87-4.26c-.32-2.23-.87-2.86-2-2.86h-.5v7.13h-3.47Zm3.47,7.79H202c1.51,0,2.38-1.22,2.38-2.78s-.61-2.6-2.17-2.65a2.45,2.45,0,0,0-.82.11Z"/>
      <path class="cls-7" d="M213.23,329.24l-.79,4.08h-3.36l3.87-17.85h4.16l3.47,17.85h-3.36l-.77-4.08Zm2.89-2.7-.58-3.74c-.19-1.09-.42-2.86-.58-4.05h-.08c-.18,1.19-.45,3-.64,4.08l-.66,3.71Z"/>
      <path class="cls-7" d="M223.14,318.67H220v-3.21h9.8v3.21h-3.18v14.65h-3.47Z"/>
      <path class="cls-7" d="M239.17,325.48h-4.08v4.82h4.61v3h-8.08V315.46h7.76v3h-4.29v4.11h4.08Z"/>
    </g>
  </g>
</svg>
